#!OML:ASF H:\MichaelJackson\Top Level 1\Subject 1\Session 1\male.ASF
:FULLY-SPECIFIED
:DEGREES
1
root 4.68694 16.8394 -26.2701 8.82385 -2.2712 0.994261
lowerback -7.20665 -0.308948 -2.75988
upperback -0.282653 -0.231826 1.2037
thorax 3.76706 -0.173515 2.77575
lowerneck -8.34912 -1.06771 -2.68661
upperneck 1.6827 -1.23839 2.22207
head 2.00272 -0.577011 1.11766
rclavicle 2.98177e-016 -1.15295e-014
rhumerus -37.406 3.75443 -90.0387
rradius 35.7407
rwrist 14.1411
rhand -26.7739 -21.8977
rfingers 7.12502
rthumb -0.201729 -51.8774
lclavicle 2.98177e-016 -1.15295e-014
lhumerus -40.0454 -2.5883 94.6388
lradius 39.2816
lwrist 8.40192
lhand -13.9394 5.55776
lfingers 7.12502
lthumb 12.1876 35.1827
rfemur -21.1961 0.786324 19.9468
rtibia 36.6891
rfoot -21.9387 -14.9433
rtoes 22.9604
lfemur -19.8539 2.17876 -22.8097
ltibia 34.2848
lfoot -22.3529 9.00996
ltoes 16.3161
2
root 4.68695 16.8395 -26.2716 8.84235 -2.24862 1.01985
lowerback -7.19903 -0.316607 -2.779
upperback -0.295107 -0.240377 1.19491
thorax 3.75049 -0.177586 2.77648
lowerneck -8.33616 -1.06698 -2.70091
upperneck 1.65757 -1.23606 2.22434
head 1.99222 -0.575939 1.12088
rclavicle 3.77691e-015 1.59028e-014
rhumerus -37.412 3.77536 -90.0542
rradius 35.7228
rwrist 14.1556
rhand -24.6447 -23.144
rfingers 7.12502
rthumb 1.85472 -53.1157
lclavicle 3.77691e-015 1.59028e-014
lhumerus -40.0538 -2.53288 94.6092
lradius 39.2548
lwrist 8.38349
lhand -13.9731 5.61751
lfingers 7.12502
lthumb 12.155 35.2444
rfemur -21.2259 0.79546 19.9192
rtibia 36.697
rfoot -21.9755 -14.9196
rtoes 23.2812
lfemur -19.8734 2.11928 -22.8338
ltibia 34.27
lfoot -22.3426 9.02337
ltoes 16.4167
3
root 4.68718 16.8401 -26.2731 8.8604 -2.25229 1.00568
lowerback -7.17143 -0.310182 -2.76562
upperback -0.321162 -0.234087 1.20334
thorax 3.70749 -0.173254 2.77826
lowerneck -8.37428 -1.06195 -2.71778
upperneck 1.71169 -1.22659 2.20749
head 2.01672 -0.571721 1.11909
rclavicle -4.02539e-015 -1.63003e-014
rhumerus -37.4338 3.79081 -90.0531
rradius 35.7138
rwrist 14.1577
rhand -24.6046 -23.2619
rfingers 7.12502
rthumb 1.89347 -53.2332
lclavicle -4.02539e-015 -1.63003e-014
lhumerus -40.0931 -2.47687 94.5949
lradius 39.2523
lwrist 8.36619
lhand -13.906 5.52429
lfingers 7.12502
lthumb 12.2197 35.1473
rfemur -21.2499 0.801918 19.9338
rtibia 36.6923
rfoot -21.9078 -14.9944
rtoes 22.7601
lfemur -19.8926 2.10134 -22.8175
ltibia 34.2635
lfoot -22.3432 9.01494
ltoes 16.4801
4
root 4.68688 16.8408 -26.2738 8.87638 -2.2193 1.00859
lowerback -7.2078 -0.313352 -2.77585
upperback -0.314177 -0.236609 1.20603
thorax 3.73539 -0.175253 2.78663
lowerneck -8.38872 -1.05892 -2.70733
upperneck 1.7186 -1.22239 2.18469
head 2.02108 -0.570119 1.11014
rclavicle -1.13059e-014 -5.56597e-015
rhumerus -37.4236 3.79197 -90.0518
rradius 35.7014
rwrist 14.1347
rhand -26.7985 -21.8959
rfingers 7.12502
rthumb -0.225453 -51.8756
lclavicle -1.13059e-014 -5.56597e-015
lhumerus -40.0707 -2.45982 94.5937
lradius 39.2198
lwrist 8.36642
lhand -13.9008 5.52926
lfingers 7.12502
lthumb 12.2248 35.152
rfemur -21.2697 0.820419 19.9355
rtibia 36.6893
rfoot -21.888 -15.0582
rtoes 22.7056
lfemur -19.9172 2.17055 -22.8201
ltibia 34.2566
lfoot -22.3478 8.91426
ltoes 16.4121
5
root 4.68674 16.8396 -26.2742 8.86464 -2.17854 1.03214
lowerback -7.17501 -0.324284 -2.79845
upperback -0.327549 -0.250102 1.20252
thorax 3.70413 -0.181623 2.79428
lowerneck -8.39075 -1.0532 -2.70919
upperneck 1.74177 -1.2141 2.16844
head 2.02869 -0.566495 1.1057
rclavicle 9.31803e-015 -1.59028e-015
rhumerus -37.4354 3.80406 -90.0554
rradius 35.6786
rwrist 14.1516
rhand -26.3256 -22.207
rfingers 7.12502
rthumb 0.231301 -52.1866
lclavicle 9.31803e-015 -1.59028e-015
lhumerus -40.0996 -2.44859 94.5872
lradius 39.2029
lwrist 8.37057
lhand -13.8782 5.58244
lfingers 7.12502
lthumb 12.2465 35.2039
rfemur -21.242 0.864441 19.9118
rtibia 36.6818
rfoot -22.0165 -14.9844
rtoes 23.3145
lfemur -19.8962 2.05917 -22.8368
ltibia 34.2554
lfoot -22.3629 9.00322
ltoes 16.3749
6
root 4.68668 16.8395 -26.2749 8.87001 -2.14752 1.03624
lowerback -7.17213 -0.329487 -2.80384
upperback -0.3338 -0.256778 1.20448
thorax 3.69653 -0.184839 2.79866
lowerneck -8.3974 -1.04944 -2.71264
upperneck 1.75535 -1.20819 2.15578
head 2.0341 -0.563928 1.10255
rclavicle -4.05024e-015 -4.37326e-015
rhumerus -37.4408 3.81535 -90.0566
rradius 35.6696
rwrist 14.1509
rhand -26.4747 -22.1156
rfingers 7.12502
rthumb 0.0872314 -52.0954
lclavicle -4.05024e-015 -4.37326e-015
lhumerus -40.1094 -2.42653 94.5802
lradius 39.1861
lwrist 8.36186
lhand -13.8603 5.60267
lfingers 7.12502
lthumb 12.2638 35.2231
rfemur -21.24 0.905695 19.909
rtibia 36.6733
rfoot -22.0579 -15.0009
rtoes 23.4566
lfemur -19.9038 2.05295 -22.8383
ltibia 34.2534
lfoot -22.3714 8.98295
ltoes 16.3573
7
root 4.68662 16.8394 -26.2754 8.87497 -2.11553 1.03627
lowerback -7.16903 -0.335054 -2.80487
upperback -0.339644 -0.264334 1.20737
thorax 3.68927 -0.188437 2.80145
lowerneck -8.40414 -1.04548 -2.71456
upperneck 1.76911 -1.20217 2.14329
head 2.03957 -0.56129 1.09919
rclavicle -7.45443e-017 7.95139e-015
rhumerus -37.4459 3.82692 -90.058
rradius 35.6635
rwrist 14.1495
rhand -26.6632 -22.0001
rfingers 7.12502
rthumb -0.0947764 -51.9799
lclavicle -7.45443e-017 7.95139e-015
lhumerus -40.12 -2.40656 94.5738
lradius 39.1732
lwrist 8.3497
lhand -13.8289 5.59393
lfingers 7.12502
lthumb 12.2941 35.2125
rfemur -21.2353 0.962197 19.9098
rtibia 36.6636
rfoot -22.0855 -15.0521
rtoes 23.6528
lfemur -19.912 2.06026 -22.8358
ltibia 34.2535
lfoot -22.382 8.94891
ltoes 16.3493
8
root 4.68654 16.8393 -26.2759 8.87977 -2.07877 1.03405
lowerback -7.16744 -0.342523 -2.80389
upperback -0.343957 -0.274569 1.21098
thorax 3.68463 -0.193401 2.80359
lowerneck -8.40692 -1.04157 -2.71726
upperneck 1.77689 -1.19633 2.13497
head 2.04242 -0.558645 1.09728
rclavicle 5.69021e-015 7.95139e-016
rhumerus -37.4513 3.84083 -90.0602
rradius 35.6637
rwrist 14.145
rhand -26.7809 -21.9183
rfingers 7.12502
rthumb -0.208477 -51.8979
lclavicle 5.69021e-015 7.95139e-016
lhumerus -40.1292 -2.38789 94.5678
lradius 39.163
lwrist 8.33555
lhand -13.8115 5.60261
lfingers 7.12502
lthumb 12.3109 35.2202
rfemur -21.2276 1.03155 19.9129
rtibia 36.6526
rfoot -22.1363 -15.1026
rtoes 23.8184
lfemur -19.9194 2.07626 -22.8306
ltibia 34.2513
lfoot -22.3928 8.90165
ltoes 16.3471
9
root 4.68653 16.8392 -26.2763 8.88397 -2.0453 1.0341
lowerback -7.16574 -0.349715 -2.80576
upperback -0.346893 -0.284182 1.21421
thorax 3.68133 -0.198142 2.80701
lowerneck -8.40956 -1.03872 -2.72057
upperneck 1.78198 -1.19191 2.12867
head 2.04442 -0.556647 1.09605
rclavicle 1.73937e-016 -7.15625e-015
rhumerus -37.4578 3.85969 -90.0632
rradius 35.6719
rwrist 14.1362
rhand -26.7821 -21.9141
rfingers 7.12502
rthumb -0.209603 -51.8937
lclavicle 1.73937e-016 -7.15625e-015
lhumerus -40.1379 -2.36815 94.5621
lradius 39.157
lwrist 8.31863
lhand -13.7987 5.60327
lfingers 7.12502
lthumb 12.3232 35.2201
rfemur -21.2189 1.11147 19.912
rtibia 36.641
rfoot -22.167 -15.1862
rtoes 23.9885
lfemur -19.9251 2.08896 -22.8281
ltibia 34.2483
lfoot -22.4071 8.85613
ltoes 16.367
